<svg width="450" height="100" viewBox="0 0 450 100" fill="none" xmlns="http://www.w3.org/2000/svg">
  <defs>
    <!-- Gradient for the 'Z' shape: Bright Cyan to Deep Purple, mimicking the source image's light and color shift. -->
    <linearGradient id="ZGradient" x1="0" y1="0" x2="1" y2="1" gradientUnits="objectBoundingBox">
      <stop offset="0%" stop-color="#3FEFFF"/>
      <stop offset="100%" stop-color="#9E3FFF"/>
    </linearGradient>
  </defs>

  <!-- The Stylized 'Z' Symbol (The first letter) -->
  <g transform="translate(10 10)">
    <!-- Redrawn Z shape: A single, continuous, smoothly rounded path (like a ribbon) to perfectly match the logo. -->
    <path
      id="ZShape"
      fill="url(#ZGradient)"
      d="M20 0H80C88.8366 0 96 7.16344 96 16V30C96 38.8366 88.8366 46 80 46H20C11.1634 46 4 53.1634 4 62V76C4 84.8366 11.1634 92 20 92H80C88.8366 92 96 84.8366 96 76V62C96 53.1634 88.8366 46 80 46H20C11.1634 46 4 38.8366 4 30V16C4 7.16344 11.1634 0 20 0Z"
      style="transform: scale(0.9, 0.9); transform-origin: 50% 50%;"
      transform="skewX(-15) translate(0 4)"
    />

    <!-- Circuitry Detail (placed inside the bottom-left curve of the 'Z') -->
    <!-- Adjusted position for the new, smoother 'Z' path. -->
    <g transform="translate(18 57) scale(0.3)" fill="#FFFFFF" opacity="0.4">
      <!-- Main curved circuit line -->
      <path d="M10 50 L 50 10 C 60 0 80 0 90 10 L 120 40" stroke="#FFFFFF" stroke-width="8" fill="none" stroke-linecap="round"/>
      <!-- Small pads/dots -->
      <circle cx="20" cy="50" r="5"/>
      <circle cx="50" cy="10" r="5"/>
      <circle cx="90" cy="10" r="5"/>
      <circle cx="120" cy="40" r="5"/>
      <!-- Connecting line segments -->
      <line x1="90" y1="10" x2="100" y2="10" stroke="#FFFFFF" stroke-width="2" stroke-linecap="round"/>
      <line x1="85" y1="15" x2="85" y2="25" stroke="#FFFFFF" stroke-width="2" stroke-linecap="round"/>
    </g>
  </g>

  <!-- The Text "enoAI" is positioned to immediately follow the graphic 'Z', forming the full name ZenoAI. -->
  <text x="100.5" y="60.5" font-family="Inter, Arial, sans-serif" font-weight="bold" font-size="60" fill="#303030">
    enoAI
  </text>
  <text x="100" y="60" font-family="Inter, Arial, sans-serif" font-weight="bold" font-size="60" fill="#4a4a4a">
    enoAI
  </text>
</svg>
